<svg width="220" height="53" viewBox="0 0 220 53" fill="none" xmlns="http://www.w3.org/2000/svg">
<path d="M0.64 52L23.32 1.6H32.536L55.288 52H45.496L25.984 6.568H29.728L10.288 52H0.64ZM11.08 40.336L13.6 32.992H40.816L43.336 40.336H11.08ZM84.5386 52.72C80.6026 52.72 76.9786 52.096 73.6666 50.848C70.4026 49.552 67.5466 47.752 65.0986 45.448C62.6506 43.096 60.7546 40.336 59.4106 37.168C58.0666 34 57.3946 30.544 57.3946 26.8C57.3946 23.056 58.0666 19.6 59.4106 16.432C60.7546 13.264 62.6506 10.528 65.0986 8.224C67.5946 5.872 70.4986 4.072 73.8106 2.824C77.1226 1.528 80.7466 0.879997 84.6826 0.879997C88.9546 0.879997 92.7946 1.576 96.2026 2.968C99.6586 4.36 102.563 6.4 104.915 9.088L99.0106 14.848C97.0426 12.88 94.9066 11.44 92.6026 10.528C90.3466 9.568 87.8506 9.088 85.1146 9.088C82.4746 9.088 80.0266 9.52 77.7706 10.384C75.5146 11.248 73.5706 12.472 71.9386 14.056C70.3066 15.64 69.0346 17.512 68.1226 19.672C67.2586 21.832 66.8266 24.208 66.8266 26.8C66.8266 29.344 67.2586 31.696 68.1226 33.856C69.0346 36.016 70.3066 37.912 71.9386 39.544C73.5706 41.128 75.4906 42.352 77.6986 43.216C79.9066 44.08 82.3546 44.512 85.0426 44.512C87.5386 44.512 89.9386 44.128 92.2426 43.36C94.5946 42.544 96.8266 41.2 98.9386 39.328L104.267 46.312C101.627 48.424 98.5546 50.032 95.0506 51.136C91.5946 52.192 88.0906 52.72 84.5386 52.72ZM95.4106 45.088V26.224H104.267V46.312L95.4106 45.088ZM116.612 52V1.6H137.348C141.812 1.6 145.628 2.32 148.796 3.76C152.012 5.2 154.484 7.264 156.212 9.952C157.94 12.64 158.804 15.832 158.804 19.528C158.804 23.224 157.94 26.416 156.212 29.104C154.484 31.744 152.012 33.784 148.796 35.224C145.628 36.616 141.812 37.312 137.348 37.312H121.796L125.972 33.064V52H116.612ZM149.588 52L136.844 33.712H146.852L159.668 52H149.588ZM125.972 34.072L121.796 29.608H136.916C141.044 29.608 144.14 28.72 146.204 26.944C148.316 25.168 149.372 22.696 149.372 19.528C149.372 16.312 148.316 13.84 146.204 12.112C144.14 10.384 141.044 9.52 136.916 9.52H121.796L125.972 4.912V34.072ZM192.892 52.72C188.956 52.72 185.332 52.072 182.02 50.776C178.708 49.48 175.828 47.68 173.38 45.376C170.932 43.024 169.036 40.288 167.692 37.168C166.348 34 165.676 30.544 165.676 26.8C165.676 23.056 166.348 19.624 167.692 16.504C169.036 13.336 170.932 10.6 173.38 8.296C175.828 5.944 178.708 4.12 182.02 2.824C185.332 1.528 188.932 0.879997 192.82 0.879997C196.756 0.879997 200.356 1.528 203.62 2.824C206.932 4.12 209.812 5.944 212.26 8.296C214.708 10.6 216.604 13.336 217.948 16.504C219.292 19.624 219.964 23.056 219.964 26.8C219.964 30.544 219.292 34 217.948 37.168C216.604 40.336 214.708 43.072 212.26 45.376C209.812 47.68 206.932 49.48 203.62 50.776C200.356 52.072 196.78 52.72 192.892 52.72ZM192.82 44.512C195.364 44.512 197.716 44.08 199.876 43.216C202.036 42.352 203.908 41.128 205.492 39.544C207.076 37.912 208.3 36.04 209.164 33.928C210.076 31.768 210.532 29.392 210.532 26.8C210.532 24.208 210.076 21.856 209.164 19.744C208.3 17.584 207.076 15.712 205.492 14.128C203.908 12.496 202.036 11.248 199.876 10.384C197.716 9.52 195.364 9.088 192.82 9.088C190.276 9.088 187.924 9.52 185.764 10.384C183.652 11.248 181.78 12.496 180.148 14.128C178.564 15.712 177.316 17.584 176.404 19.744C175.54 21.856 175.108 24.208 175.108 26.8C175.108 29.344 175.54 31.696 176.404 33.856C177.316 36.016 178.564 37.912 180.148 39.544C181.732 41.128 183.604 42.352 185.764 43.216C187.924 44.08 190.276 44.512 192.82 44.512Z" fill="#5F8D4E"/>
</svg>
